<?xml version="1.0" standalone="no"?><!DOCTYPE svg PUBLIC "-//W3C//DTD SVG 1.1//EN"
    "http://www.w3.org/Graphics/SVG/1.1/DTD/svg11.dtd">
<svg t="1761221495968" class="icon" viewBox="0 0 1024 1024" version="1.1" xmlns="http://www.w3.org/2000/svg" p-id="5337"
     width="24" height="24">
    <path
        d="M213.333333 384V85.333333H170.666667a42.666667 42.666667 0 0 0-42.666667 42.666667v256a170.666667 170.666667 0 0 0 170.666667 170.666667h5.12l-13.653334 170.666666-19.882666 165.546667A42.666667 42.666667 0 0 0 312.618667 938.666667H349.866667a42.666667 42.666667 0 0 0 42.666666-42.666667V554.453333A170.666667 170.666667 0 0 0 554.666667 384V128a42.666667 42.666667 0 0 0-42.666667-42.666667h-42.666667v298.666667H384V85.333333H298.666667v298.666667H213.333333z"
        p-id="5338" fill="#d81e06"></path>
    <path
        d="M896 85.333333a213.333333 213.333333 0 0 0-213.333333 213.333334v256a42.666667 42.666667 0 0 0 42.666666 42.666666h64l-32.853333 262.613334a70.016 70.016 0 1 0 139.52 8.704V85.333333z"
        p-id="5339" fill="#d81e06"></path>
</svg>